<?xml version="1.0" standalone="no"?><!DOCTYPE svg PUBLIC "-//W3C//DTD SVG 1.1//EN" "http://www.w3.org/Graphics/SVG/1.1/DTD/svg11.dtd"><svg t="1495939216921" class="icon" style="" viewBox="0 0 1024 1024" version="1.1" xmlns="http://www.w3.org/2000/svg" p-id="3445" xmlns:xlink="http://www.w3.org/1999/xlink" width="16" height="16"><defs><style type="text/css"></style></defs><path d="M491.52 573.44C649.871067 573.44 778.24 445.071067 778.24 286.72 778.24 128.368933 649.871067 0 491.52 0 333.168933 0 204.8 128.368933 204.8 286.72 204.8 445.071067 333.168933 573.44 491.52 573.44L491.52 573.44ZM491.52 491.52C378.412105 491.52 286.72 399.827895 286.72 286.72 286.72 173.612105 378.412105 81.92 491.52 81.92 604.627895 81.92 696.32 173.612105 696.32 286.72 696.32 399.827895 604.627895 491.52 491.52 491.52ZM830.573568 627.181275C739.800576 540.671122 619.468946 491.52 491.52 491.52 220.060965 491.52 0 711.580965 0 983.04 0 1005.66155 18.33845 1024 40.96 1024 63.58155 1024 81.92 1005.66155 81.92 983.04 81.92 756.824137 265.304137 573.44 491.52 573.44 598.212023 573.44 698.369829 614.350848 774.056521 686.483163 790.432329 702.089947 816.359278 701.466551 831.965989 685.090743 847.572699 668.715008 846.949303 642.788059 830.573568 627.181275ZM681.381595 851.074048 914.538203 851.074048C937.159753 851.074048 955.498203 832.735598 955.498203 810.114048 955.498203 787.492425 937.159753 769.154048 914.538203 769.154048L681.381595 769.154048C658.760046 769.154048 640.421595 787.492425 640.421595 810.114048 640.421595 832.735598 658.760046 851.074048 681.381595 851.074048ZM681.381595 1021.080869 914.538203 1021.080869C937.159753 1021.080869 955.498203 1002.742418 955.498203 980.120869 955.498203 957.499246 937.159753 939.160869 914.538203 939.160869L681.381595 939.160869C658.760046 939.160869 640.421595 957.499246 640.421595 980.120869 640.421595 1002.742418 658.760046 1021.080869 681.381595 1021.080869Z" p-id="3446" fill="#ffffff"></path></svg>